<?xml version="1.0" standalone="no"?>
<!DOCTYPE svg PUBLIC "-//W3C//DTD SVG 20010904//EN"
 "http://www.w3.org/TR/2001/REC-SVG-20010904/DTD/svg10.dtd">
<svg version="1.0" xmlns="http://www.w3.org/2000/svg"
 width="512.000000pt" height="512.000000pt" viewBox="0 0 512.000000 512.000000"
 preserveAspectRatio="xMidYMid meet">
<metadata>
Created by potrace 1.14, written by Peter Selinger 2001-2017
</metadata>
<g transform="translate(0.000000,512.000000) scale(0.100000,-0.100000)"
fill="#000000" stroke="none">
<path d="M573 4733 c-20 -7 -16 -61 5 -67 9 -3 55 -7 102 -10 166 -11 256 -45
287 -106 10 -20 13 -303 13 -1313 0 -1169 -2 -1292 -16 -1323 -34 -72 -118
-105 -309 -120 -93 -7 -97 -9 -93 -41 l3 -28 643 -1 c618 -1 643 -1 653 17 6
12 6 25 0 37 -8 14 -24 18 -87 19 -108 3 -209 28 -255 65 -8 7 -24 26 -35 43
-18 28 -19 54 -19 648 0 340 3 621 7 623 4 3 37 -23 73 -57 36 -34 74 -69 84
-78 18 -16 157 -142 211 -191 15 -14 60 -54 100 -90 40 -36 85 -76 100 -90 44
-41 191 -174 212 -192 37 -32 202 -183 279 -256 118 -111 137 -128 239 -206
108 -81 227 -157 375 -237 l100 -54 495 -2 c272 -1 505 0 518 3 19 4 23 10 20
36 -3 36 8 30 -178 78 -471 122 -596 160 -685 211 -69 38 -334 258 -530 439
-216 199 -280 257 -299 273 -11 10 -66 62 -121 115 -56 53 -178 171 -273 261
-106 101 -169 168 -163 174 18 18 227 24 306 8 164 -33 235 -87 235 -178 0
-51 33 -152 72 -223 41 -74 88 -133 162 -203 74 -70 267 -202 275 -189 3 6 6
159 5 341 -1 252 2 334 11 341 9 7 189 10 536 8 l524 -3 53 -24 c118 -53 215
-220 236 -409 4 -41 12 -50 51 -55 65 -9 63 -19 64 316 0 166 -4 309 -9 317
-8 13 -192 15 -1432 16 -783 0 -1436 -3 -1451 -7 -15 -4 -41 -19 -58 -33 -31
-27 -76 -34 -107 -17 -16 9 -17 54 -17 608 0 663 -1 649 64 682 62 32 122 44
276 57 44 3 83 8 87 10 7 5 3 37 -6 52 -5 9 -1310 13 -1333 5z"/>
<path d="M2439 4718 c-20 -38 3 -47 125 -47 136 1 178 -6 205 -34 44 -48 31
-99 -45 -179 -41 -43 -58 -59 -259 -229 -60 -51 -115 -98 -121 -104 -6 -5 -24
-21 -40 -34 -54 -46 -249 -215 -265 -230 -9 -9 -45 -41 -80 -71 -156 -136
-279 -266 -279 -296 0 -32 163 -41 242 -12 28 10 194 141 282 223 14 13 152
133 186 161 14 12 104 90 200 174 96 84 200 174 230 200 74 64 324 283 380
333 100 88 156 110 288 110 l93 0 -3 26 -3 26 -563 1 c-548 2 -563 1 -573 -18z"/>
<path d="M2629 1313 c0 -368 -2 -675 -4 -683 -12 -62 -29 -100 -52 -122 -51
-47 -69 -52 -233 -54 -85 -1 -159 -2 -163 -3 -5 0 -7 -16 -5 -33 l3 -33 666
-1 c367 -1 672 2 679 6 17 11 21 57 6 69 -7 6 -23 8 -37 6 -50 -11 -166 -5
-224 10 -81 21 -128 55 -154 107 -20 43 -21 57 -22 544 -1 274 -6 506 -10 516
-8 15 -71 63 -336 256 l-113 82 -1 -667z"/>
</g>
</svg>
